<?xml version="1.0" encoding="utf-8"?><svg fill="none" viewBox="0 0 964 920" xmlns="http://www.w3.org/2000/svg"><defs /><g transform="matrix(1,0,0,1,464,476)" id="Flat Color"><g id="Group 27"><path fill="#7fc9dd" fill-opacity="1" d="M-211.307,62.827C-218.784,62.578,-218.783,98.269,-218.783,110.176C-218.783,122.083,-220.168,145.619,-208.261,145.619C-197.185,145.619,-199.954,122.913,-199.954,110.73C-199.954,98.547,-203,63.104,-211.307,62.827Z" /></g><g id="Group 26"><path fill="#7fc9dd" fill-opacity="1" d="M-179.551,72.897C-186.698,70.685,-196.108,105.114,-199.248,116.599C-202.388,128.084,-209.929,150.422,-198.444,153.562C-187.76,156.483,-184.444,133.85,-181.231,122.098C-178.018,110.346,-171.611,75.355,-179.551,72.897Z" /></g><g id="Group 25"><path fill="#7fc9dd" fill-opacity="1" d="M-244.12,76.254C-251.258,78.495,-239.434,112.173,-235.49,123.407C-231.546,134.641,-225.057,157.308,-213.823,153.364C-203.372,149.695,-213.506,129.189,-217.541,117.693C-221.576,106.197,-236.19,73.764,-244.12,76.254Z" /></g><g id="Group 24"><path fill="#fcdbac" fill-opacity="1" d="M-126.969,-13.948L-411.737,-13.948L-411.737,-34.945L-126.969,-34.945L-126.969,-13.948Z" /></g><g id="Group 23"><path fill="#f4c287" fill-opacity="1" d="M-375.818,-13.948L-333.461,-13.948L-333.461,3.755L-375.818,3.755L-375.818,-13.948Z" /></g><g id="Group 22"><path fill="#f4c287" fill-opacity="1" d="M-162.887,-13.948L-205.245,-13.948L-205.245,3.755L-162.887,3.755L-162.887,-13.948Z" /></g><g id="Group 21"><path fill="#7fc9dd" fill-opacity="1" d="M-351.614,-34.945L-380.091,-34.945L-380.091,-143.329L-351.614,-143.329L-351.614,-34.945Z" /></g><g id="Group 20"><path fill="#b5e6f7" fill-opacity="1" d="M-351.614,-107.695L-380.091,-107.695L-380.091,-116.623L-351.614,-116.623L-351.614,-107.695Z" /></g><g id="Group 19"><path fill="#b5e6f7" fill-opacity="1" d="M-322.115,-34.945L-351.614,-34.945L-351.614,-181.865L-322.115,-181.865L-322.115,-34.945Z" /></g><g id="Group 18"><path fill="#63c6fc" fill-opacity="1" d="M-322.115,-34.945L-351.614,-34.945L-351.614,-64.444L-322.115,-64.444L-322.115,-34.945Z" /></g><g id="Group 17"><path fill="#7fc9dd" fill-opacity="1" d="M-292.616,-34.945L-322.115,-34.945L-322.115,-158.859L-292.616,-158.859L-292.616,-34.945Z" /></g><g id="Group 16"><path fill="#b5e6f7" fill-opacity="1" d="M-315.877,-47.652L-315.877,-146.152L-298.854,-146.152L-298.854,-47.652L-315.877,-47.652Z" /></g><g id="Group 15"><path fill="#63c6fc" fill-opacity="1" d="M-203.438,-52.992L-226.772,-34.945L-292.616,-120.079L-269.282,-138.126L-203.438,-52.992Z" /></g><g id="Group 14"><path fill="#b5e6f7" fill-opacity="1" d="M-253.529,-117.759L-276.863,-99.712L-282.16,-106.56L-258.825,-124.607L-253.529,-117.759Z" /></g><g id="Group 13"><path fill="#b5e6f7" fill-opacity="1" d="M-249.159,-112.109L-272.493,-94.062L-266.488,-86.296L-243.154,-104.344L-249.159,-112.109Z" /></g><g id="Group 12"><path fill="#7fc9dd" fill-opacity="1" d="M-166.236,-52.992L-189.57,-34.945L-255.414,-120.079L-232.08,-138.126L-166.236,-52.992Z" /></g><g id="Group 11"><path fill="#fcdbac" fill-opacity="1" d="M-126.969,198.663L-411.737,198.663L-411.737,177.666L-126.969,177.666L-126.969,198.663Z" /></g><g id="Group 10"><path fill="#f4c287" fill-opacity="1" d="M-375.818,198.663L-333.461,198.663L-333.461,216.366L-375.818,216.366L-375.818,198.663Z" /></g><g id="Group 9"><path fill="#f4c287" fill-opacity="1" d="M-162.887,198.663L-205.245,198.663L-205.245,216.366L-162.887,216.366L-162.887,198.663Z" /></g><g id="Group 8"><path fill="#b5e6f7" fill-opacity="1" d="M-314.236,177.312L-342.713,177.312L-342.713,70.021L-314.236,70.021L-314.236,177.312Z" /></g><g id="Group 7"><path fill="#7fc9dd" fill-opacity="1" d="M-342.713,177.666L-372.211,177.666L-372.211,70.378L-342.713,70.378L-342.713,177.666Z" /></g><g id="Group 6"><path fill="#b5e6f7" fill-opacity="1" d="M-342.713,117.821L-372.211,117.821L-372.211,82.637L-342.713,82.637L-342.713,117.821Z" /></g><g id="Group 5"><path fill="#7fc9dd" fill-opacity="1" d="M-284.804,177.255L-314.303,177.255L-314.303,85.996L-284.804,85.996L-284.804,177.255Z" /></g><g id="Group 4"><path fill="#b5e6f7" fill-opacity="1" d="M-292.941,177.255L-306.166,177.255L-306.166,85.996L-292.941,85.996L-292.941,177.255Z" /></g><g id="Group 3"><path fill="#63c6fc" fill-opacity="1" d="M-204.073,177.533L-211.002,177.533C-231.45,177.533,-248.027,160.956,-248.027,140.508L-248.027,132.036L-167.049,132.036L-167.049,140.508C-167.049,160.956,-183.625,177.533,-204.073,177.533Z" /></g><g id="Group 2"><path fill="#b5e6f7" fill-opacity="1" d="M-163.127,137.44L-251.18,137.44C-254.391,137.44,-256.995,134.836,-256.995,131.625L-256.995,131.625C-256.995,128.414,-254.391,125.81,-251.18,125.81L-163.127,125.81C-159.916,125.81,-157.312,128.414,-157.312,131.625L-157.312,131.625C-157.312,134.836,-159.916,137.44,-163.127,137.44Z" /></g><g id="Group 1"><path fill="#63c6fc" fill-opacity="1" d="M-322.705,153.907C-322.705,157.093,-325.288,159.676,-328.474,159.676C-331.66,159.676,-334.243,157.093,-334.243,153.907C-334.243,150.721,-331.66,148.138,-328.474,148.138C-325.288,148.138,-322.705,150.721,-322.705,153.907Z" /></g></g><g id="NULL body"><g transform="translate(631.021,656.379)"><animateTransform repeatCount="indefinite" type="translate" attributeName="transform" dur="6s" begin="0s" calcMode="spline" values="631.021 656.379; 631.021 596.379; 631.021 656.379; 631.021 596.379; 631.021 656.379" keyTimes="0; 0.25; 0.5; 0.75; 1" keySplines="0.333 0 0.667 1; 0.333 0 0.667 1; 0.185 0 0.667 1; 0.333 0 0.667 1" fill="freeze" /><g transform="scale(1,1) translate(-50,-50)"><g transform="matrix(1,0,0,1,-117.021,-110.379)" id="fire"><g id="Group 2"><path fill="#ff4e74" fill-opacity="1" d="M181.201,382.288C181.201,354.634,216.831,309.216,217.889,281.053C219.188,246.485,198.552,230.241,169.494,230.241C137.071,230.241,123.568,253.399,126.61,284.51C130.504,324.334,181.201,382.288,181.201,382.288Z" /></g><g id="Group 1"><path fill="#ffd74e" fill-opacity="1" d="M169.068,243.622C155.756,243.661,145.362,259.088,149.076,281.371C152.79,303.654,172.07,325.328,172.07,325.328C175.299,300.816,186.23,294.097,191.042,275.809C196.793,253.951,182.501,243.583,169.068,243.622Z" /></g></g></g></g></g><g id="NULL body"><g transform="translate(631.021,656.379)"><animateTransform repeatCount="indefinite" type="translate" attributeName="transform" dur="6s" begin="0s" calcMode="spline" values="631.021 656.379; 631.021 596.379; 631.021 656.379; 631.021 596.379; 631.021 656.379" keyTimes="0; 0.25; 0.5; 0.75; 1" keySplines="0.333 0 0.667 1; 0.333 0 0.667 1; 0.185 0 0.667 1; 0.333 0 0.667 1" fill="freeze" /><g transform="scale(1,1) translate(-50,-50)"><g id="body"><g transform="translate(50,50)"><g transform="rotate(3)"><animateTransform repeatCount="indefinite" type="rotate" attributeName="transform" dur="5.7s" begin="0s" calcMode="spline" values="3; 0; 0; -3; -3; 3; 3; 0; 0; -3; -3; 3" keyTimes="0; 0.088; 0.181; 0.269; 0.357; 0.474; 0.526; 0.614; 0.708; 0.795; 0.883; 1" keySplines="0.333 0 0.667 1; 0.167 0 0.667 1; 0.167 0 0.667 1; 0.167 0 0.667 1; 0.333 0 0.667 1; 0.24 0 0.667 1; 0.333 0 0.667 1; 0.167 0 0.667 1; 0.167 0 0.667 1; 0.167 0 0.667 1; 0.333 0 0.667 1" fill="freeze" /><g transform="scale(1,1) translate(-167.021,-160.379)"><g id="r arm"><g transform="translate(13.447,-27.185)"><g transform="rotate(-8)"><animateTransform repeatCount="indefinite" type="rotate" attributeName="transform" dur="5.7s" begin="0s" calcMode="spline" values="-8; 0; 0; 18; 18; -8; -8; 0; 0; 18; 18; -8" keyTimes="0; 0.088; 0.181; 0.269; 0.357; 0.474; 0.526; 0.614; 0.708; 0.795; 0.883; 1" keySplines="0.333 0 0.667 1; 0.167 0 0.667 1; 0.167 0 0.667 1; 0.167 0 0.667 1; 0.333 0 0.667 1; 0.24 0 0.667 1; 0.333 0 0.667 1; 0.167 0 0.667 1; 0.167 0 0.667 1; 0.167 0 0.667 1; 0.333 0 0.667 1" fill="freeze" /><g transform="scale(1,1) translate(-13.447,27.185)"><g id="Group 2"><path fill="#eaeaea" fill-opacity="1" d="M-18.488,217.37L-58.874,204.749L-3.729,-31.745L36.656,-19.124L-18.488,217.37Z" /></g><g id="Group 1"><path fill="#cccccc" fill-opacity="1" d="M-13.348,-0.967C-11.376,17.626,-9.311,37.607,-9.208,40.738C-9.047,45.618,-35.283,183.137,-44.313,209.3L-18.488,217.37L36.656,-19.124L-3.729,-31.745L-13.348,-0.967Z" /></g></g></g></g></g></g></g></g></g></g></g></g><g id="NULL body"><g transform="translate(631.021,656.379)"><animateTransform repeatCount="indefinite" type="translate" attributeName="transform" dur="6s" begin="0s" calcMode="spline" values="631.021 656.379; 631.021 596.379; 631.021 656.379; 631.021 596.379; 631.021 656.379" keyTimes="0; 0.25; 0.5; 0.75; 1" keySplines="0.333 0 0.667 1; 0.333 0 0.667 1; 0.185 0 0.667 1; 0.333 0 0.667 1" fill="freeze" /><g transform="scale(1,1) translate(-50,-50)"><g id="body"><g transform="translate(50,50)"><g transform="rotate(3)"><animateTransform repeatCount="indefinite" type="rotate" attributeName="transform" dur="5.7s" begin="0s" calcMode="spline" values="3; 0; 0; -3; -3; 3; 3; 0; 0; -3; -3; 3" keyTimes="0; 0.088; 0.181; 0.269; 0.357; 0.474; 0.526; 0.614; 0.708; 0.795; 0.883; 1" keySplines="0.333 0 0.667 1; 0.167 0 0.667 1; 0.167 0 0.667 1; 0.167 0 0.667 1; 0.333 0 0.667 1; 0.24 0 0.667 1; 0.333 0 0.667 1; 0.167 0 0.667 1; 0.167 0 0.667 1; 0.167 0 0.667 1; 0.333 0 0.667 1" fill="freeze" /><g transform="scale(1,1) translate(-167.021,-160.379)"><g id="Group 7"><path fill="#001a3f" fill-opacity="1" d="M200.043,-19.727L122.57,-19.727L122.57,-112.941L200.043,-112.941L200.043,-19.727Z" /></g><g id="Group 6"><path fill="#001a3f" fill-opacity="1" d="M177.19,205.7L166.949,205.7C136.728,205.7,112.229,181.2,112.229,150.979L112.229,134.929L231.911,134.929L231.911,150.979C231.911,181.2,207.411,205.7,177.19,205.7Z" /></g><g id="Group 5"><path fill="#001a3f" fill-opacity="1" d="M290.686,161.532L91.172,161.532L51.048,-46.946L361.308,-46.946L326.949,131.583C323.603,148.968,308.39,161.532,290.686,161.532Z" /></g><g id="Group 4"><path fill="#001a3f" fill-opacity="1" d="M371.25,-46.946L43.013,-46.946L58.579,62.526L132.324,62.526L140.947,98.273L273.316,98.273L281.939,62.526L355.683,62.526L371.25,-46.946Z" /></g><g id="Group 3"><path fill="#2f5584" fill-opacity="1" d="M236.027,161.532L67.012,161.532C49.308,161.532,34.095,148.967,30.749,131.582L-3.61,-46.946L306.649,-46.946L272.29,131.582C268.944,148.967,253.731,161.532,236.027,161.532Z" /></g><g id="Group 2"><path fill="#eaeaea" fill-opacity="1" d="M319.029,-46.946L-9.208,-46.946L6.359,62.526L80.103,62.526L88.726,98.273L221.095,98.273L229.718,62.526L303.462,62.526L319.029,-46.946Z" /></g><g id="Group 1"><path fill="#b5e6f7" fill-opacity="1" d="M165.776,64.811L137.263,64.811C123.632,64.811,112.581,53.76,112.581,40.129L112.581,35.509C112.581,21.878,123.632,10.827,137.263,10.827L165.776,10.827C179.407,10.827,190.458,21.878,190.458,35.509L190.458,40.129C190.458,53.76,179.407,64.811,165.776,64.811Z" /></g></g></g></g></g></g></g></g><g opacity="0" id="NULL body"><g transform="translate(631.021,656.379)"><animateTransform repeatCount="indefinite" type="translate" attributeName="transform" dur="6s" begin="0s" calcMode="spline" values="631.021 656.379; 631.021 596.379; 631.021 656.379; 631.021 596.379; 631.021 656.379" keyTimes="0; 0.25; 0.5; 0.75; 1" keySplines="0.333 0 0.667 1; 0.333 0 0.667 1; 0.185 0 0.667 1; 0.333 0 0.667 1" fill="freeze" /><g transform="scale(1,1) translate(-50,-50)" /></g></g><g id="NULL body"><g transform="translate(631.021,656.379)"><animateTransform repeatCount="indefinite" type="translate" attributeName="transform" dur="6s" begin="0s" calcMode="spline" values="631.021 656.379; 631.021 596.379; 631.021 656.379; 631.021 596.379; 631.021 656.379" keyTimes="0; 0.25; 0.5; 0.75; 1" keySplines="0.333 0 0.667 1; 0.333 0 0.667 1; 0.185 0 0.667 1; 0.333 0 0.667 1" fill="freeze" /><g transform="scale(1,1) translate(-50,-50)"><g id="body"><g transform="translate(50,50)"><g transform="rotate(3)"><animateTransform repeatCount="indefinite" type="rotate" attributeName="transform" dur="5.7s" begin="0s" calcMode="spline" values="3; 0; 0; -3; -3; 3; 3; 0; 0; -3; -3; 3" keyTimes="0; 0.088; 0.181; 0.269; 0.357; 0.474; 0.526; 0.614; 0.708; 0.795; 0.883; 1" keySplines="0.333 0 0.667 1; 0.167 0 0.667 1; 0.167 0 0.667 1; 0.167 0 0.667 1; 0.333 0 0.667 1; 0.24 0 0.667 1; 0.333 0 0.667 1; 0.167 0 0.667 1; 0.167 0 0.667 1; 0.167 0 0.667 1; 0.333 0 0.667 1" fill="freeze" /><g transform="scale(1,1) translate(-167.021,-160.379)"><g id="l arm"><g transform="translate(339.24,-1.109)"><g transform="rotate(-12)"><animateTransform repeatCount="indefinite" type="rotate" attributeName="transform" dur="5.7s" begin="0s" calcMode="spline" values="-12; 0; 0; 14; 14; -12; -12; 0; 0; 14; 14; -12" keyTimes="0; 0.088; 0.181; 0.269; 0.357; 0.474; 0.526; 0.614; 0.708; 0.795; 0.883; 1" keySplines="0.333 0 0.667 1; 0.167 0 0.667 1; 0.167 0 0.667 1; 0.167 0 0.667 1; 0.333 0 0.667 1; 0.24 0 0.667 1; 0.333 0 0.667 1; 0.167 0 0.667 1; 0.167 0 0.667 1; 0.167 0 0.667 1; 0.333 0 0.667 1" fill="freeze" /><g transform="scale(1,1) translate(-339.24,1.109)"><g id="Group 2"><path fill="#eaeaea" fill-opacity="1" d="M404.307,140.097L365.087,155.975L319.725,10.907C315.34,0.077,320.566,-12.258,331.396,-16.642L331.396,-16.642C342.226,-21.026,354.56,-15.801,358.945,-4.971L404.307,140.097Z" /></g><g id="Group 1"><path fill="#cccccc" fill-opacity="1" d="M404.307,140.097L393.099,104.254C383.562,100.802,374.77,100.8,374.77,100.8L336.118,-17.94C334.531,-17.695,332.949,-17.271,331.396,-16.642L331.396,-16.642C320.566,-12.258,315.341,0.077,319.725,10.907L365.087,155.975L404.307,140.097Z" /></g></g></g></g></g></g></g></g></g></g></g></g><g id="NULL body"><g transform="translate(631.021,656.379)"><animateTransform repeatCount="indefinite" type="translate" attributeName="transform" dur="6s" begin="0s" calcMode="spline" values="631.021 656.379; 631.021 596.379; 631.021 656.379; 631.021 596.379; 631.021 656.379" keyTimes="0; 0.25; 0.5; 0.75; 1" keySplines="0.333 0 0.667 1; 0.333 0 0.667 1; 0.185 0 0.667 1; 0.333 0 0.667 1" fill="freeze" /><g transform="scale(1,1) translate(-50,-50)"><g id="body"><g transform="translate(50,50)"><g transform="rotate(3)"><animateTransform repeatCount="indefinite" type="rotate" attributeName="transform" dur="5.7s" begin="0s" calcMode="spline" values="3; 0; 0; -3; -3; 3; 3; 0; 0; -3; -3; 3" keyTimes="0; 0.088; 0.181; 0.269; 0.357; 0.474; 0.526; 0.614; 0.708; 0.795; 0.883; 1" keySplines="0.333 0 0.667 1; 0.167 0 0.667 1; 0.167 0 0.667 1; 0.167 0 0.667 1; 0.333 0 0.667 1; 0.24 0 0.667 1; 0.333 0 0.667 1; 0.167 0 0.667 1; 0.167 0 0.667 1; 0.167 0 0.667 1; 0.333 0 0.667 1" fill="freeze" /><g transform="scale(1,1) translate(-167.021,-160.379)"><g id="l arm"><g transform="translate(339.24,-1.109)"><g transform="rotate(-12)"><animateTransform repeatCount="indefinite" type="rotate" attributeName="transform" dur="5.7s" begin="0s" calcMode="spline" values="-12; 0; 0; 14; 14; -12; -12; 0; 0; 14; 14; -12" keyTimes="0; 0.088; 0.181; 0.269; 0.357; 0.474; 0.526; 0.614; 0.708; 0.795; 0.883; 1" keySplines="0.333 0 0.667 1; 0.167 0 0.667 1; 0.167 0 0.667 1; 0.167 0 0.667 1; 0.333 0 0.667 1; 0.24 0 0.667 1; 0.333 0 0.667 1; 0.167 0 0.667 1; 0.167 0 0.667 1; 0.167 0 0.667 1; 0.333 0 0.667 1" fill="freeze" /><g transform="scale(1,1) translate(-339.24,1.109)"><g id="l hand"><g transform="translate(383.317,142.801)"><g transform="rotate(-2)"><animateTransform repeatCount="indefinite" type="rotate" attributeName="transform" dur="5.7s" begin="0s" calcMode="spline" values="-2; 0; 0; 9; 9; -2; -2; 0; 0; 9; 9; -2" keyTimes="0; 0.088; 0.181; 0.269; 0.357; 0.474; 0.526; 0.614; 0.708; 0.795; 0.883; 1" keySplines="0.333 0 0.667 1; 0.167 0 0.667 1; 0.167 0 0.667 1; 0.167 0 0.667 1; 0.333 0 0.667 1; 0.24 0 0.667 1; 0.333 0 0.667 1; 0.167 0 0.667 1; 0.167 0 0.667 1; 0.167 0 0.667 1; 0.333 0 0.667 1" fill="freeze" /><g transform="scale(1,1) translate(-383.317,-142.801)"><g id="book"><g transform="translate(151.001,144.664)"><g transform="rotate(0)"><animateTransform repeatCount="indefinite" type="rotate" attributeName="transform" dur="4.667s" begin="1.033s" calcMode="spline" values="0; -17; -17; 0; 0; -17; -17; 0" keyTimes="0; 0.107; 0.214; 0.357; 0.643; 0.75; 0.857; 1" keySplines="0.333 0 0.667 1; 0.297 0 0.667 1; 0.333 0 0.667 1; 0.171 0 0.833 1; 0.333 0 0.667 1; 0.297 0 0.667 1; 0.333 0 0.667 1" fill="freeze" /><g transform="scale(1,1) translate(-151.001,-144.664)"><g id="Group 4"><path fill="#b5e6f7" fill-opacity="1" d="M149.768,133.99L150.88,54.687C115.105,62.405,80.985,78.386,67.004,105.365C52.08,77.589,19.942,57.942,-14.34,52.968L-5.508,124.747L149.768,133.99Z" /></g><g id="Group 3"><path fill="#ff4e74" fill-opacity="1" d="M-27.443,69.899C6.386,70.926,34.103,80.241,67.004,105.365C91.551,84.25,129.684,76.942,167.445,77.38L163.068,198.133C127.662,195.388,96.754,200.902,71.534,216.859C42.902,197.504,14.839,186.463,-12.129,191.48L-27.443,69.899Z" /></g><g id="Group 2"><g id="Group 2"><path fill="#a5022d" fill-opacity="1" d="M67.004,105.365L71.534,216.859" /></g><g id="Group 1"><path fill="#a5022d" fill-opacity="1" d="M71.533,218.359C70.733,218.359,70.069,217.727,70.036,216.92L65.505,105.426C65.471,104.599,66.116,103.901,66.943,103.867C67.775,103.831,68.468,104.476,68.502,105.304L73.033,216.798C73.067,217.626,72.422,218.324,71.595,218.358C71.574,218.359,71.554,218.359,71.533,218.359Z" /></g></g><g id="Group 1"><path fill="#ffd74e" fill-opacity="1" d="M85.869,170.126C104.709,160.698,122.956,157.934,140.695,160.856L142.058,177.069C123.515,174.482,103.972,177.049,87.124,184.605L85.869,170.126Z" /></g></g></g></g></g></g></g></g></g></g></g></g></g></g></g></g></g></g></g></g><g id="NULL body"><g transform="translate(631.021,656.379)"><animateTransform repeatCount="indefinite" type="translate" attributeName="transform" dur="6s" begin="0s" calcMode="spline" values="631.021 656.379; 631.021 596.379; 631.021 656.379; 631.021 596.379; 631.021 656.379" keyTimes="0; 0.25; 0.5; 0.75; 1" keySplines="0.333 0 0.667 1; 0.333 0 0.667 1; 0.185 0 0.667 1; 0.333 0 0.667 1" fill="freeze" /><g transform="scale(1,1) translate(-50,-50)"><g id="body"><g transform="translate(50,50)"><g transform="rotate(3)"><animateTransform repeatCount="indefinite" type="rotate" attributeName="transform" dur="5.7s" begin="0s" calcMode="spline" values="3; 0; 0; -3; -3; 3; 3; 0; 0; -3; -3; 3" keyTimes="0; 0.088; 0.181; 0.269; 0.357; 0.474; 0.526; 0.614; 0.708; 0.795; 0.883; 1" keySplines="0.333 0 0.667 1; 0.167 0 0.667 1; 0.167 0 0.667 1; 0.167 0 0.667 1; 0.333 0 0.667 1; 0.24 0 0.667 1; 0.333 0 0.667 1; 0.167 0 0.667 1; 0.167 0 0.667 1; 0.167 0 0.667 1; 0.333 0 0.667 1" fill="freeze" /><g transform="scale(1,1) translate(-167.021,-160.379)"><g id="r arm"><g transform="translate(13.447,-27.185)"><g transform="rotate(-8)"><animateTransform repeatCount="indefinite" type="rotate" attributeName="transform" dur="5.7s" begin="0s" calcMode="spline" values="-8; 0; 0; 18; 18; -8; -8; 0; 0; 18; 18; -8" keyTimes="0; 0.088; 0.181; 0.269; 0.357; 0.474; 0.526; 0.614; 0.708; 0.795; 0.883; 1" keySplines="0.333 0 0.667 1; 0.167 0 0.667 1; 0.167 0 0.667 1; 0.167 0 0.667 1; 0.333 0 0.667 1; 0.24 0 0.667 1; 0.333 0 0.667 1; 0.167 0 0.667 1; 0.167 0 0.667 1; 0.167 0 0.667 1; 0.333 0 0.667 1" fill="freeze" /><g transform="scale(1,1) translate(-13.447,27.185)"><g id="r hand"><g transform="translate(-40.162,204.44)"><animateTransform repeatCount="indefinite" type="translate" attributeName="transform" dur="5.7s" begin="0s" calcMode="spline" values="-40.162 204.44; -42.467 138.99; -42.467 138.99; -37.17 43.944; -37.17 43.944; -40.162 204.44; -40.162 204.44; -42.467 138.99; -42.467 138.99; -37.17 43.944; -37.17 43.944; -40.162 204.44" keyTimes="0; 0.088; 0.181; 0.269; 0.357; 0.474; 0.526; 0.614; 0.708; 0.795; 0.883; 1" keySplines="0.333 0 0.667 1; 0 0 1 1; 0.167 0 0.667 1; 0.185 0 0.667 1; 0.333 0 0.667 1; 0 0 1 1; 0.333 0 0.667 1; 0 0 1 1; 0.167 0 0.667 1; 0 0 1 1; 0.333 0 0.667 1" fill="freeze" /><g transform="rotate(0)"><animateTransform repeatCount="indefinite" type="rotate" attributeName="transform" dur="5.7s" begin="0s" calcMode="spline" values="0; 0; 0; -9; -9; 0; 0; 0; 0; -9; -9; 0" keyTimes="0; 0.088; 0.181; 0.269; 0.357; 0.474; 0.526; 0.614; 0.708; 0.795; 0.883; 1" keySplines="0.333 0 0.667 1; 0.167 0 0.667 1; 0.167 0 0.667 1; 0.167 0 0.667 1; 0.333 0 0.667 1; 0.24 0 0.667 1; 0.333 0 0.667 1; 0.167 0 0.667 1; 0.167 0 0.667 1; 0.167 0 0.667 1; 0.333 0 0.667 1" fill="freeze" /><g transform="scale(1,1) translate(42.467,-138.99)"><g id="Group 2"><path fill="#001a3f" fill-opacity="1" d="M-5.816,132.659C-3.531,148.354,-14.403,162.929,-30.098,165.214C-45.793,167.499,-60.369,156.628,-62.654,140.933C-64.939,125.238,-54.067,110.662,-38.372,108.377C-22.677,106.092,-8.101,116.964,-5.816,132.659Z" /></g><g id="Group 1"><path fill="#eaeaea" fill-opacity="1" d="M2.618,163.563L-31.569,166.145C-36.234,166.497,-40.301,163.001,-40.653,158.336L-43.887,115.499C-44.239,110.834,-40.744,106.767,-36.079,106.415L-1.892,103.833C2.518,103.5,6.363,106.806,6.696,111.216L10,154.975C10.333,159.385,7.028,163.23,2.618,163.563Z" /></g></g></g></g></g></g></g></g></g></g></g></g></g></g></g></g><g id="NULL body"><g transform="translate(631.021,656.379)"><animateTransform repeatCount="indefinite" type="translate" attributeName="transform" dur="6s" begin="0s" calcMode="spline" values="631.021 656.379; 631.021 596.379; 631.021 656.379; 631.021 596.379; 631.021 656.379" keyTimes="0; 0.25; 0.5; 0.75; 1" keySplines="0.333 0 0.667 1; 0.333 0 0.667 1; 0.185 0 0.667 1; 0.333 0 0.667 1" fill="freeze" /><g transform="scale(1,1) translate(-50,-50)"><g id="body"><g transform="translate(50,50)"><g transform="rotate(3)"><animateTransform repeatCount="indefinite" type="rotate" attributeName="transform" dur="5.7s" begin="0s" calcMode="spline" values="3; 0; 0; -3; -3; 3; 3; 0; 0; -3; -3; 3" keyTimes="0; 0.088; 0.181; 0.269; 0.357; 0.474; 0.526; 0.614; 0.708; 0.795; 0.883; 1" keySplines="0.333 0 0.667 1; 0.167 0 0.667 1; 0.167 0 0.667 1; 0.167 0 0.667 1; 0.333 0 0.667 1; 0.24 0 0.667 1; 0.333 0 0.667 1; 0.167 0 0.667 1; 0.167 0 0.667 1; 0.167 0 0.667 1; 0.333 0 0.667 1" fill="freeze" /><g transform="scale(1,1) translate(-167.021,-160.379)"><g id="l arm"><g transform="translate(339.24,-1.109)"><g transform="rotate(-12)"><animateTransform repeatCount="indefinite" type="rotate" attributeName="transform" dur="5.7s" begin="0s" calcMode="spline" values="-12; 0; 0; 14; 14; -12; -12; 0; 0; 14; 14; -12" keyTimes="0; 0.088; 0.181; 0.269; 0.357; 0.474; 0.526; 0.614; 0.708; 0.795; 0.883; 1" keySplines="0.333 0 0.667 1; 0.167 0 0.667 1; 0.167 0 0.667 1; 0.167 0 0.667 1; 0.333 0 0.667 1; 0.24 0 0.667 1; 0.333 0 0.667 1; 0.167 0 0.667 1; 0.167 0 0.667 1; 0.167 0 0.667 1; 0.333 0 0.667 1" fill="freeze" /><g transform="scale(1,1) translate(-339.24,1.109)"><g id="l hand"><g transform="translate(383.317,142.801)"><g transform="rotate(-2)"><animateTransform repeatCount="indefinite" type="rotate" attributeName="transform" dur="5.7s" begin="0s" calcMode="spline" values="-2; 0; 0; 9; 9; -2; -2; 0; 0; 9; 9; -2" keyTimes="0; 0.088; 0.181; 0.269; 0.357; 0.474; 0.526; 0.614; 0.708; 0.795; 0.883; 1" keySplines="0.333 0 0.667 1; 0.167 0 0.667 1; 0.167 0 0.667 1; 0.167 0 0.667 1; 0.333 0 0.667 1; 0.24 0 0.667 1; 0.333 0 0.667 1; 0.167 0 0.667 1; 0.167 0 0.667 1; 0.167 0 0.667 1; 0.333 0 0.667 1" fill="freeze" /><g transform="scale(1,1) translate(-383.317,-142.801)"><g id="Group 7"><path fill="#eaeaea" fill-opacity="1" d="M383.018,131.571L386.452,157.593L209.936,156.249L209.439,131.571L383.018,131.571Z" /></g><g id="Group 6"><path fill="#cccccc" fill-opacity="1" d="M379.535,157.54L382.038,131.571L335.583,131.571C331.839,136.523,325.909,143.554,322.18,143.891C316.397,144.413,221.406,143.379,221.406,143.379L217.232,156.305L379.535,157.54Z" /></g><g id="Group 5"><path fill="#001a3f" fill-opacity="1" d="M402.354,122.657C414.081,133.336,414.931,151.5,404.252,163.227C393.573,174.954,375.409,175.803,363.682,165.124C351.955,154.445,351.106,136.282,361.785,124.555C372.464,112.828,390.627,111.978,402.354,122.657Z" /></g><g id="Group 4"><path fill="#2f5584" fill-opacity="1" d="M392.244,133.76C397.839,138.855,398.244,147.521,393.149,153.116C388.054,158.711,379.388,159.116,373.793,154.021C368.198,148.926,367.793,140.26,372.888,134.665C377.983,129.07,386.649,128.665,392.244,133.76Z" /></g><g id="Group 3"><path fill="#001a3f" fill-opacity="1" d="M228.503,132.82C234.795,141.953,232.493,154.458,223.36,160.75C214.227,167.042,201.722,164.74,195.43,155.607C189.138,146.474,191.44,133.969,200.573,127.677C209.706,121.385,222.211,123.687,228.503,132.82Z" /></g><g id="Group 2"><path fill="#eaeaea" fill-opacity="1" d="M142.952,174.766L177.236,174.736C181.914,174.732,185.702,170.936,185.698,166.258L185.66,123.299C185.656,118.621,181.86,114.832,177.182,114.836L142.898,114.866C138.475,114.87,134.894,118.458,134.898,122.881L134.937,166.766C134.941,171.189,138.529,174.77,142.952,174.766Z" /></g><g id="Group 1"><path fill="#cccccc" fill-opacity="1" d="M212.12,163.556L186.098,166.379L186.098,121.402L212.12,124.225L212.12,163.556Z" /></g></g></g></g></g></g></g></g></g></g></g></g></g></g></g></g><g id="NULL body"><g transform="translate(631.021,656.379)"><animateTransform repeatCount="indefinite" type="translate" attributeName="transform" dur="6s" begin="0s" calcMode="spline" values="631.021 656.379; 631.021 596.379; 631.021 656.379; 631.021 596.379; 631.021 656.379" keyTimes="0; 0.25; 0.5; 0.75; 1" keySplines="0.333 0 0.667 1; 0.333 0 0.667 1; 0.185 0 0.667 1; 0.333 0 0.667 1" fill="freeze" /><g transform="scale(1,1) translate(-50,-50)"><g id="body"><g transform="translate(50,50)"><g transform="rotate(3)"><animateTransform repeatCount="indefinite" type="rotate" attributeName="transform" dur="5.7s" begin="0s" calcMode="spline" values="3; 0; 0; -3; -3; 3; 3; 0; 0; -3; -3; 3" keyTimes="0; 0.088; 0.181; 0.269; 0.357; 0.474; 0.526; 0.614; 0.708; 0.795; 0.883; 1" keySplines="0.333 0 0.667 1; 0.167 0 0.667 1; 0.167 0 0.667 1; 0.167 0 0.667 1; 0.333 0 0.667 1; 0.24 0 0.667 1; 0.333 0 0.667 1; 0.167 0 0.667 1; 0.167 0 0.667 1; 0.167 0 0.667 1; 0.333 0 0.667 1" fill="freeze" /><g transform="scale(1,1) translate(-167.021,-160.379)"><g id="head"><g transform="translate(168.405,-80.311)"><g transform="rotate(10)"><animateTransform repeatCount="indefinite" type="rotate" attributeName="transform" dur="5.7s" begin="0s" calcMode="spline" values="10; 0; 0; -2; -2; 10; 10; 0; 0; -2; -2; 10" keyTimes="0; 0.088; 0.181; 0.269; 0.357; 0.474; 0.526; 0.614; 0.708; 0.795; 0.883; 1" keySplines="0.333 0 0.667 1; 0.167 0 0.667 1; 0.167 0 0.667 1; 0.167 0 0.667 1; 0.333 0 0.667 1; 0.24 0 0.667 1; 0.333 0 0.667 1; 0.167 0 0.667 1; 0.167 0 0.667 1; 0.167 0 0.667 1; 0.333 0 0.667 1" fill="freeze" /><g transform="scale(1,1) translate(-168.405,80.311)"><g id="Group 7"><path fill="#eaeaea" fill-opacity="1" d="M295.187,-245.963C316.047,-152.124,249.101,-94.165,155.262,-73.305C61.423,-52.445,-23.773,-76.584,-44.633,-170.423C-65.493,-264.262,-6.332,-357.243,87.507,-378.103C181.346,-398.963,274.327,-339.802,295.187,-245.963Z" /></g><g id="Group 6"><path fill="#cccccc" fill-opacity="1" d="M295.187,-245.963C283.166,-300.041,247.191,-342.601,200.904,-364.967C218.3,-345.559,231.101,-321.548,237.159,-294.294C255.985,-209.603,195.566,-157.293,110.875,-138.467C47.286,-124.331,-11.905,-133.093,-45.423,-174.185C-45.173,-172.931,-44.912,-171.677,-44.633,-170.423C-23.773,-76.584,61.423,-52.445,155.262,-73.305C249.101,-94.164,316.047,-152.125,295.187,-245.963Z" /></g><g id="Group 5"><path fill="#2f5584" fill-opacity="1" d="M273.072,-253.967C282.813,-210.146,269.702,-169.951,243.787,-164.19C217.872,-158.429,188.966,-189.284,179.225,-233.105C169.484,-276.926,182.596,-317.12,208.511,-322.881C234.426,-328.642,263.331,-297.788,273.072,-253.967Z" /></g><g id="Group 4"><path fill="#001a3f" fill-opacity="1" d="M130.648,-116.715L14.139,-90.816C-6.118,-86.313,-26.997,-95.515,-37.207,-113.581C-54.711,-144.551,-64.788,-193.362,-61.627,-229.109C-59.814,-249.608,-44.889,-266.552,-24.8,-271.018L90.81,-296.717C115.03,-302.101,139.256,-287.835,146.374,-264.067C155.235,-234.479,162.462,-201.918,167.158,-169.754C170.738,-145.233,154.838,-122.092,130.648,-116.715Z" /></g><g id="Group 3"><g id="Group 2"><path fill="#cccccc" fill-opacity="1" d="M245.119,-220.372C248.588,-227.407,249.585,-237.561,247.216,-248.219C244.847,-258.877,239.642,-267.652,233.519,-272.555L232.051,-279.16L220.08,-276.499C220.079,-276.499,220.079,-276.499,220.078,-276.499C209.104,-274.06,203.462,-257.443,207.476,-239.385C211.49,-221.327,223.641,-208.666,234.615,-211.105L234.616,-211.106L246.587,-213.767L245.119,-220.372Z" /></g><g id="Group 1"><path fill="#eaeaea" fill-opacity="1" d="M259.189,-250.88C263.203,-232.822,257.561,-216.206,246.587,-213.767C235.613,-211.328,223.463,-223.989,219.449,-242.047C215.435,-260.105,221.077,-276.721,232.051,-279.16C243.025,-281.599,255.175,-268.938,259.189,-250.88Z" /></g></g><g id="Group 2"><path fill="#ffffff" fill-opacity="1" d="M123.347,-205.095C120.673,-204.501,118.024,-206.186,117.43,-208.86C114.029,-224.159,100.266,-234.16,86.751,-231.156C73.236,-228.152,65.006,-213.261,68.407,-197.962C69.001,-195.288,67.316,-192.639,64.642,-192.045C61.968,-191.451,59.319,-193.136,58.725,-195.81C54.137,-216.447,65.744,-236.647,84.599,-240.838C103.454,-245.029,122.524,-231.649,127.112,-211.012C127.706,-208.338,126.021,-205.689,123.347,-205.095Z" /></g><g id="Group 1"><path fill="#ffffff" fill-opacity="1" d="M26.816,-183.636C24.142,-183.042,21.493,-184.727,20.899,-187.401C17.498,-202.7,3.735,-212.702,-9.78,-209.698C-23.295,-206.694,-31.525,-191.803,-28.124,-176.504C-27.53,-173.83,-29.215,-171.181,-31.889,-170.587C-34.563,-169.993,-37.212,-171.678,-37.806,-174.352C-42.394,-194.989,-30.787,-215.189,-11.932,-219.38C6.923,-223.571,25.993,-210.191,30.581,-189.554C31.175,-186.88,29.49,-184.23,26.816,-183.636Z" /></g></g></g></g></g></g></g></g></g></g></g></g></svg>