<?xml version="1.0" encoding="utf-8"?><svg fill="none" viewBox="0 0 700 700" xmlns="http://www.w3.org/2000/svg"><defs /><g transform="matrix(1,0,0,1,0,0)" id="Capa 1"><g id="Group 5" transform="matrix(1,0,0,1,350,420.568)"><path fill="#ff7043" fill-opacity="1" d="M225.096,185.432L-225.093,185.432C-242.162,185.432,-255.999,171.596,-255.999,154.527L-255.999,-154.527C-255.999,-171.596,-242.162,-185.432,-225.094,-185.432L225.094,-185.432C242.163,-185.432,255.999,-171.595,255.999,-154.527L255.999,154.527C256,171.596,242.164,185.432,225.096,185.432Z" /></g><g id="Group 4" transform="matrix(1,0,0,1,575.095,420.567)"><path fill="#ff5722" fill-opacity="1" d="M0,-185.432L-30.905,-185.432C-13.836,-185.432,0,-171.595,0,-154.527L0,154.527C0,171.596,-13.837,185.432,-30.905,185.432L0,185.432C17.068,185.433,30.905,171.597,30.905,154.528L30.905,-154.526C30.905,-171.595,17.068,-185.432,0,-185.432L0,-185.432Z" /></g><g id="Group 3" transform="matrix(1,0,0,1,237.453,549.128)"><path fill="#eddbb9" fill-opacity="1" d="M112.547,23.907L-108.547,23.907C-110.756,23.907,-112.547,22.116,-112.547,19.907L-112.547,-23.907L112.547,-23.907L112.547,23.907Z" /></g><g id="Group 2" transform="matrix(1,0,0,1,462.548,549.128)"><path fill="#e0cfaf" fill-opacity="1" d="M108.548,23.907L-112.548,23.907L-112.548,-23.907L112.548,-23.907L112.548,19.907C112.548,22.116,110.757,23.907,108.548,23.907Z" /></g><g id="Group 1" transform="matrix(1,0,0,1,237.453,375.755)"><path fill="#fbf2df" fill-opacity="1" d="M112.547,166.374L-108.547,166.374C-110.756,166.374,-112.547,164.583,-112.547,162.374L-112.547,-162.374C-112.547,-164.583,-110.756,-166.374,-108.547,-166.374L112.547,-166.374L112.547,166.374Z" /></g></g><g transform="matrix(1,0,0,1,462.548,375.755)" id="Capa 2"><g id="Group 1"><path fill="#eddbb9" fill-opacity="1" d="M108.548,166.374L-112.548,166.374L-112.548,-166.374L108.548,-166.374C110.757,-166.374,112.548,-164.583,112.548,-162.374L112.548,162.374C112.548,164.583,110.757,166.374,108.548,166.374Z" /></g></g><g opacity="0" id="Paper waiting"><animate repeatCount="indefinite" attributeName="opacity" dur="0.4666666666666667s" begin="0.6333333333333333s" calcMode="spline" values="0; 1" keyTimes="0; 1" keySplines="0.333 0 0.667 1" fill="freeze" /><g transform="translate(462.548,375.755) scale(1,1) translate(0,0)"><g id="Group 1"><path fill="#f2e5ce" fill-opacity="1" d="M108.548,166.374L-112.548,166.374L-112.548,-166.374L108.548,-166.374C110.757,-166.374,112.548,-164.583,112.548,-162.374L112.548,162.374C112.548,164.583,110.757,166.374,108.548,166.374Z" /></g></g></g><g id="Paper fly"><g transform="translate(350.867,351.849)"><g transform="scale(1,1)"><animateTransform repeatCount="indefinite" type="scale" attributeName="transform" dur="0.467s" begin="0.433s" calcMode="spline" values="1 1; -1 1" keyTimes="0; 1" keySplines="0.333 0 0.667 1" fill="freeze" /><g transform="translate(97,0)"><g id="Group 1"><path fill="#f2e5ce" fill-opacity="1" d="M94.838,142.104L-97.867,190.28L-97.867,-142.468L92.897,-190.159C95.422,-190.79,97.867,-188.881,97.867,-186.278L97.867,138.224C97.868,140.059,96.618,141.659,94.838,142.104L94.838,142.104Z" /></g></g></g></g></g><g opacity="0" visibility="hidden" id="Paper fly 3"><animate repeatCount="indefinite" begin="0.9s" calcMode="discrete" fill="freeze" dur="0.367s" values="visible; visible" keyTimes="0; 1" attributeName="visibility" /><animate repeatCount="indefinite" attributeName="opacity" dur="0.3333333333333333s" begin="0.9s" calcMode="spline" values="0; 1" keyTimes="0; 1" keySplines="0.333 0 0.667 1" fill="freeze" /><g transform="translate(350.867,351.849)"><g transform="scale(-0.529,1)"><animateTransform repeatCount="indefinite" type="scale" attributeName="transform" dur="0.567s" begin="0s" calcMode="spline" values="1 1; -1 1" keyTimes="0; 1" keySplines="0 0 1 1" fill="freeze" /><g transform="translate(97,0)"><g id="Group 1"><path fill="#fbf2df" fill-opacity="1" d="M100.13211764705882,150.48635294117648L-97.867,190.28L-97.867,-142.468L98.191,-181.468C100.716,-182.099,103.161,-180.19,103.161,-177.587L103.161,146.606C103.162,148.441,101.912,150.041,100.132,150.486L100.132,150.486Z" /></g></g></g></g></g></svg>